<svg width="202" height="37" viewBox="0 0 202 37" fill="none" xmlns="http://www.w3.org/2000/svg">
<path d="M0 36.3842V0.461859H22.6791L19.6652 4.6699H5.14265V16.165H21.1363L18.1068 20.0559L5.14265 20.2705V32.1761H22.6791L19.6652 36.3842H0Z" fill="#1F75FE"/>
<path d="M38.9319 37C36.4634 37 34.3035 36.4184 32.4521 35.2552C30.6008 34.092 29.1608 32.5012 28.1323 30.4827C27.1381 28.4642 26.6409 26.1891 26.6409 23.6574C26.6409 21.0915 27.1381 18.8165 28.1323 16.8322C29.1608 14.8137 30.6179 13.2228 32.5035 12.0596C34.4235 10.8964 36.6519 10.3148 39.189 10.3148C41.3489 10.3148 43.1831 10.7596 44.6916 11.6491C46.2344 12.5044 47.4344 13.5821 48.2915 14.8821L48.2401 3.72753L53.4341 0V36.3842L48.5486 31.9709H48.3943C47.7772 32.963 47.0058 33.8354 46.0801 34.5881C45.1545 35.3407 44.0916 35.9394 42.8917 36.3842C41.726 36.7947 40.4061 37 38.9319 37ZM40.0118 32.5867C41.6575 32.5867 43.0974 32.2104 44.3316 31.4577C45.5659 30.705 46.5258 29.6616 47.2115 28.3273C47.8972 26.9931 48.2401 25.4364 48.2401 23.6574C48.2401 21.8784 47.8972 20.3218 47.2115 18.9875C46.5258 17.6533 45.5659 16.6098 44.3316 15.8571C43.0974 15.1045 41.6575 14.7282 40.0118 14.7282C38.4004 14.7282 36.9776 15.1045 35.7434 15.8571C34.5092 16.6098 33.5492 17.6533 32.8635 18.9875C32.2121 20.3218 31.8864 21.8784 31.8864 23.6574C31.8864 25.4364 32.2121 26.9931 32.8635 28.3273C33.5492 29.6616 34.5092 30.705 35.7434 31.4577C36.9776 32.2104 38.4004 32.5867 40.0118 32.5867Z" fill="#1F75FE"/>
<path d="M68.4675 37C66.4448 37 64.6963 36.5895 63.222 35.7684C61.7478 34.9131 60.5993 33.6473 59.7765 31.9709C58.9879 30.2945 58.5936 28.1734 58.5936 25.6075V14.6768L63.7363 10.9307V25.0943C63.7363 27.5918 64.2506 29.4734 65.2791 30.7393C66.3076 32.0051 67.8504 32.638 69.9075 32.638C71.2788 32.638 72.4959 32.313 73.5588 31.663C74.6559 30.9787 75.513 30.0037 76.1301 28.7379C76.7815 27.472 77.1072 25.9325 77.1072 24.1193V14.6768L82.2498 10.9307V36.3842L77.3129 32.1761H77.1586C76.3358 33.6473 75.1873 34.8276 73.713 35.7171C72.2388 36.5724 70.4903 37 68.4675 37Z" fill="#1F75FE"/>
<path d="M87.4546 31.719V14.6768L92.1567 10.9307L92.5681 14.8821H92.6709C93.4937 13.411 94.608 12.282 96.0136 11.4951C97.4193 10.7083 98.9964 10.3148 100.745 10.3148C102.048 10.3148 103.23 10.503 104.293 10.8793C105.39 11.2215 106.333 11.7688 107.122 12.5215C107.945 13.2399 108.613 14.1637 109.127 15.2927H109.282C110.207 13.7189 111.407 12.5044 112.882 11.6491C114.39 10.7596 116.139 10.3148 118.127 10.3148C120.116 10.3148 121.847 10.7425 123.321 11.5978C124.795 12.4189 125.927 13.6847 126.715 15.3953C127.538 17.0717 127.949 19.1757 127.949 21.7074V36.3842L122.858 31.719V22.2205C122.858 19.7573 122.361 17.8927 121.367 16.6269C120.373 15.3269 118.898 14.6768 116.944 14.6768C115.641 14.6768 114.493 14.9847 113.499 15.6006C112.504 16.1822 111.716 17.0717 111.133 18.2691C110.584 19.4323 110.31 20.8863 110.31 22.6311V36.3842L105.219 31.719V22.2205C105.219 19.7573 104.722 17.8927 103.728 16.6269C102.733 15.3269 101.276 14.6768 99.3564 14.6768C98.1564 14.6768 97.0422 15.019 96.0136 15.7032C95.0194 16.3532 94.2137 17.3111 93.5966 18.577C93.0138 19.8428 92.7223 21.3823 92.7223 23.1956V36.3842L87.4546 31.719Z" fill="#1F75FE"/>
<path d="M141.466 37C139.409 37 137.695 36.6579 136.324 35.9736C134.952 35.2552 133.924 34.2973 133.238 33.0999C132.587 31.9025 132.261 30.6024 132.261 29.1997C132.261 27.5233 132.689 26.0865 133.547 24.889C134.438 23.6916 135.706 22.7679 137.352 22.1179C139.032 21.4679 141.038 21.1429 143.369 21.1429H150.106C150.106 19.6375 149.866 18.3888 149.386 17.3967C148.94 16.4045 148.272 15.669 147.38 15.19C146.489 14.6768 145.409 14.4202 144.14 14.4202C142.563 14.4202 141.192 14.8137 140.026 15.6006C138.895 16.3532 138.209 17.5164 137.969 19.0902H132.775C132.981 17.2085 133.598 15.6348 134.626 14.3689C135.689 13.0689 137.044 12.0767 138.689 11.3925C140.335 10.6741 142.152 10.3148 144.14 10.3148C146.54 10.3148 148.563 10.7425 150.209 11.5978C151.889 12.4531 153.14 13.6676 153.963 15.2413C154.82 16.7809 155.249 18.6112 155.249 20.7323V36.3842L150.414 32.0735H150.312C149.866 32.8604 149.352 33.5617 148.769 34.1775C148.186 34.7591 147.517 35.2552 146.763 35.6657C146.043 36.0763 145.237 36.4013 144.346 36.6408C143.489 36.8803 142.529 37 141.466 37ZM142.649 32.8433C143.815 32.8433 144.843 32.6209 145.735 32.1761C146.626 31.7314 147.38 31.1327 147.997 30.38C148.649 29.5932 149.129 28.7208 149.437 27.7628C149.78 26.8049 149.969 25.8128 150.003 24.7864H143.832C142.358 24.7864 141.158 24.9575 140.232 25.2996C139.306 25.6417 138.638 26.1207 138.226 26.7365C137.849 27.3523 137.661 28.0707 137.661 28.8918C137.661 29.6787 137.849 30.38 138.226 30.9958C138.638 31.5774 139.203 32.0393 139.923 32.3814C140.678 32.6893 141.586 32.8433 142.649 32.8433Z" fill="#1F75FE"/>
<path d="M170.291 36.3842C168.646 36.3842 167.223 36.1276 166.023 35.6144C164.823 35.1012 163.897 34.246 163.246 33.0485C162.594 31.8511 162.269 30.2261 162.269 28.1734V14.9847H157.897L160.698 10.9307H162.269V7.61523L167.411 4.56727V10.9307H174.714L171.607 14.9847H167.411V28.2247C167.411 29.7642 167.72 30.8077 168.337 31.3551C168.954 31.9025 170.017 32.1761 171.525 32.1761L174.405 36.3842H170.291Z" fill="#1F75FE"/>
<path d="M189.658 37C187.155 37 184.944 36.4526 183.024 35.3578C181.104 34.2288 179.595 32.6722 178.498 30.6879C177.401 28.7037 176.852 26.3773 176.852 23.7087C176.852 21.0402 177.384 18.7138 178.447 16.7295C179.544 14.7111 181.052 13.1373 182.972 12.0083C184.926 10.8793 187.172 10.3148 189.709 10.3148C192.246 10.3148 194.423 10.8793 196.24 12.0083C198.092 13.1031 199.514 14.5571 200.509 16.3703C201.503 18.1835 202 20.202 202 22.4258C202 22.7679 202 23.1442 202 23.5548C202 23.9653 201.983 24.393 201.949 24.8377H181.91L185.801 21.2455H196.857C196.755 19.1244 196.035 17.4651 194.697 16.2677C193.36 15.0361 191.68 14.4202 189.658 14.4202C188.286 14.4202 187.001 14.7282 185.801 15.344C184.635 15.9598 183.692 16.8835 182.972 18.1151C182.252 19.3125 181.892 20.835 181.892 22.6824V24.1193C181.892 26.0009 182.252 27.5918 182.972 28.8918C183.692 30.1576 184.635 31.1156 185.801 31.7656C187.001 32.4156 188.286 32.7406 189.658 32.7406C191.269 32.7406 192.623 32.3814 193.72 31.663C194.817 30.9103 195.623 29.9011 196.137 28.6352H201.28C200.8 30.2432 200.029 31.6801 198.966 32.9459C197.903 34.1775 196.583 35.1697 195.006 35.9223C193.463 36.6408 191.68 37 189.658 37Z" fill="#1F75FE"/>
</svg>
